<svg width="71" height="32" viewBox="0 0 71 32" fill="none" xmlns="http://www.w3.org/2000/svg">
<g clip-path="url(#clip0_484_10723)">
<path fill-rule="evenodd" clip-rule="evenodd" d="M46.6044 31.7236C46.4553 31.7236 46.3342 31.6753 46.2416 31.5787C46.149 31.4821 46.1026 31.344 46.1026 31.1642C46.1026 31.1308 46.1041 31.0967 46.1072 31.0622C46.0461 31.1368 45.9803 31.2045 45.9093 31.2653C45.6629 31.4765 45.4041 31.582 45.1329 31.582C44.9655 31.582 44.8367 31.5291 44.7464 31.4237C44.656 31.3182 44.6107 31.1822 44.6107 31.016C44.6107 30.9605 44.6159 30.8984 44.6261 30.8292C44.5225 30.9706 44.402 31.1025 44.2651 31.2249C43.9982 31.4631 43.7293 31.582 43.458 31.582C43.3043 31.582 43.1832 31.5415 43.0951 31.4608C43.0071 31.3799 42.9628 31.2744 42.9628 31.144C42.9628 30.9912 43.0285 30.771 43.1595 30.4835C43.2183 30.3353 43.2623 30.2172 43.2918 30.1297C43.3213 30.0422 43.3359 29.96 43.3359 29.8837C43.3359 29.7714 43.3099 29.6826 43.2578 29.6174C43.2058 29.5522 43.1481 29.4983 43.085 29.4558C43.0216 29.4131 42.9786 29.385 42.9562 29.3716C42.8567 29.6232 42.7504 29.8692 42.6374 30.1095C42.5429 30.3105 42.461 30.473 42.3919 30.597C42.3148 30.75 42.2249 30.8907 42.1221 31.0193C41.9729 31.2057 41.8124 31.3506 41.6406 31.454C41.4688 31.5574 41.3037 31.609 41.1457 31.609C40.9874 31.609 40.8665 31.563 40.7828 31.4707C40.6991 31.3787 40.6574 31.2674 40.6574 31.1372C40.6574 31.0788 40.6642 31.0137 40.6777 30.9417C40.4742 31.2113 40.2922 31.409 40.1319 31.5347C39.9713 31.6604 39.812 31.7234 39.6538 31.7234C39.5044 31.7234 39.3835 31.6751 39.2909 31.5785C39.1983 31.4819 39.1517 31.3438 39.1517 31.164C39.1517 31.1306 39.1534 31.0965 39.1563 31.062C39.0952 31.1366 39.0292 31.2043 38.9584 31.2651C38.712 31.4763 38.453 31.5818 38.1818 31.5818C38.0146 31.5818 37.8858 31.5289 37.7952 31.4235C37.7049 31.318 37.6596 31.182 37.6596 31.0158C37.6596 30.9659 37.6638 30.9105 37.6721 30.8494C37.3555 31.3555 37.0168 31.6088 36.656 31.6088C36.4707 31.6088 36.3341 31.5459 36.2458 31.4202C36.1577 31.2945 36.1135 31.1258 36.1135 30.9147C36.1135 30.8666 36.1156 30.8164 36.1195 30.764C36.0115 30.9644 35.8796 31.1314 35.7236 31.2651C35.4771 31.4763 35.2183 31.5818 34.9471 31.5818C34.7796 31.5818 34.6511 31.5289 34.5605 31.4235C34.4702 31.318 34.4249 31.182 34.4249 31.0158C34.4249 30.9613 34.4299 30.9002 34.4396 30.8325C34.3829 30.9023 34.3225 30.9588 34.2587 31.0024C34.0936 31.1147 33.9117 31.1708 33.7127 31.1708C33.6358 31.1708 33.5636 31.164 33.4956 31.1506C33.36 31.3752 33.2017 31.5562 33.0208 31.6932C32.8399 31.8303 32.6389 31.8988 32.4173 31.8988C32.1867 31.8988 32.0127 31.8235 31.8951 31.673C31.7775 31.5225 31.7188 31.3147 31.7188 31.0497C31.7188 30.9611 31.7246 30.8664 31.7362 30.7656C31.703 30.7935 31.6679 30.8187 31.6305 30.8408C31.4724 30.9351 31.3096 30.9824 31.1422 30.9824C31.0203 30.9824 30.9116 30.9599 30.8167 30.9149C30.6539 31.126 30.4809 31.2967 30.2979 31.427C30.1147 31.5572 29.9419 31.6224 29.7791 31.6224C29.5938 31.6224 29.4582 31.5663 29.3722 31.454C29.2864 31.3417 29.2434 31.1935 29.2434 31.0092C29.2434 30.9956 29.2436 30.982 29.244 30.9683C29.1771 31.0734 29.1047 31.1712 29.0263 31.2618C28.8228 31.4978 28.5968 31.6156 28.3482 31.6156C28.1991 31.6156 28.0861 31.5696 28.009 31.4773C27.9322 31.3853 27.8938 31.2672 27.8938 31.1235C27.8938 31.0022 27.9299 30.8249 28.0022 30.5912C28.0248 30.5149 28.0464 30.4385 28.0666 30.3621C28.0869 30.2857 28.0971 30.2205 28.0971 30.1666C28.0971 30.0857 28.0778 30.0251 28.0394 29.9846C28.0009 29.9441 27.9546 29.9241 27.9004 29.9241C27.7963 29.9241 27.6846 29.9972 27.5646 30.1431C27.4449 30.2893 27.2605 30.5508 27.0119 30.9283C26.9487 31.0272 26.8605 31.1933 26.7475 31.427L26.6864 31.5549C26.6141 31.5549 26.5383 31.5426 26.4594 31.5178C26.3802 31.493 26.3408 31.4606 26.3408 31.4202C26.3408 31.3888 26.3792 31.2697 26.4561 31.0631C26.551 30.7844 26.6268 30.5497 26.6833 30.3588C26.7398 30.1679 26.768 30.005 26.768 29.8702C26.768 29.6996 26.7115 29.6143 26.5985 29.6143C26.472 29.6143 26.3082 29.7154 26.1069 29.9175C25.9056 30.1198 25.7079 30.3747 25.5135 30.6825C25.3191 30.9902 25.1677 31.2924 25.0591 31.5888C24.9911 31.5888 24.9133 31.5731 24.8252 31.5417C24.7371 31.5104 24.6929 31.4788 24.6929 31.4474C24.6929 31.434 24.7245 31.3283 24.7878 31.1308C24.8919 30.8296 24.9789 30.5535 25.0489 30.3018C25.1189 30.0502 25.1563 29.8323 25.1608 29.6482C25.1924 29.6122 25.2377 29.5796 25.2965 29.5505C25.3552 29.5214 25.414 29.5066 25.4728 29.5066C25.5949 29.5066 25.656 29.565 25.656 29.6818C25.656 29.8032 25.5972 30.0591 25.4797 30.45C25.7013 30.0996 25.9397 29.7986 26.1952 29.547C26.4507 29.2954 26.6891 29.1697 26.9107 29.1697C27.0418 29.1697 27.1357 29.2168 27.1921 29.3113C27.2486 29.4056 27.2769 29.5291 27.2769 29.682C27.2769 29.8347 27.2542 30.0009 27.209 30.1807C27.1637 30.3605 27.1163 30.5109 27.0665 30.6323C27.2383 30.3223 27.4169 30.0719 27.6021 29.8808C27.7874 29.6899 27.9841 29.5945 28.192 29.5945C28.3276 29.5945 28.4261 29.6349 28.487 29.7157C28.548 29.7966 28.5785 29.9 28.5785 30.0257C28.5785 30.1109 28.5671 30.2019 28.5447 30.2985C28.5221 30.3951 28.4882 30.513 28.4429 30.6523C28.3661 30.8905 28.3276 31.0567 28.3276 31.151C28.3276 31.3037 28.3956 31.3801 28.5312 31.3801C28.6986 31.3801 28.8567 31.2779 29.006 31.0734C29.1084 30.933 29.2089 30.7698 29.307 30.5838C29.3217 30.533 29.3389 30.4818 29.3587 30.4298C29.4355 30.2275 29.535 30.0591 29.6569 29.9243C29.7791 29.7895 29.9012 29.722 30.0231 29.722C30.0638 29.722 30.1114 29.7334 30.1656 29.7557C30.1114 29.8007 30.0457 29.8996 29.9689 30.0523C29.892 30.205 29.8254 30.3679 29.7689 30.5409C29.7124 30.7138 29.6841 30.8542 29.6841 30.9619C29.6841 31.2181 29.7656 31.3461 29.9282 31.3461C30.0231 31.3461 30.1361 31.2967 30.2674 31.1979C30.3984 31.099 30.5272 30.9687 30.6539 30.8069C30.5274 30.7035 30.429 30.5687 30.359 30.4026C30.2888 30.2364 30.2539 30.0634 30.2539 29.8837C30.2539 29.65 30.3137 29.45 30.4335 29.2838C30.5534 29.1177 30.715 29.0345 30.9183 29.0345C31.0901 29.0345 31.2109 29.0805 31.2811 29.1726C31.3511 29.2647 31.3862 29.3916 31.3862 29.5534C31.3862 29.7241 31.3445 29.9163 31.2608 30.1297C31.1771 30.3431 31.0674 30.5508 30.9318 30.753C31.0132 30.7978 31.0992 30.8203 31.1895 30.8203C31.3206 30.8203 31.4562 30.7811 31.5964 30.7025C31.6594 30.6672 31.7152 30.6232 31.7645 30.5704C31.8249 30.223 31.9454 29.812 32.1252 29.3379C32.3965 28.6236 32.7029 27.9878 33.0441 27.4307C33.3856 26.8736 33.6466 26.595 33.8273 26.595C33.8953 26.595 33.9482 26.6388 33.9866 26.7265C34.0251 26.814 34.0442 26.9118 34.0442 27.0196C34.0442 27.2307 33.9696 27.5114 33.8205 27.8619C33.6714 28.2124 33.4767 28.5492 33.2373 28.8727C32.9976 29.1961 32.7512 29.4343 32.4981 29.5871C32.4393 29.6948 32.3703 29.8971 32.2912 30.1935C32.2121 30.4901 32.1726 30.7619 32.1726 31.009C32.1726 31.4313 32.297 31.6425 32.5456 31.6425C32.6767 31.6425 32.8123 31.5896 32.9525 31.4841C33.0927 31.3787 33.2057 31.2426 33.2917 31.0765C33.1334 30.9956 33.0113 30.8754 32.9255 30.7159C32.8395 30.5565 32.7967 30.3869 32.7967 30.2071C32.7967 29.9959 32.8522 29.824 32.9629 29.6915C33.0736 29.559 33.2082 29.4927 33.3665 29.4927C33.4975 29.4927 33.6016 29.5466 33.6784 29.6543C33.7553 29.7623 33.7937 29.915 33.7937 30.1126C33.7937 30.4092 33.7146 30.7147 33.5563 31.029C33.6105 31.0426 33.6693 31.0492 33.7326 31.0492C33.9451 31.0492 34.1158 30.9817 34.2446 30.847C34.3435 30.7436 34.4363 30.6152 34.5231 30.4614C34.5391 30.4061 34.557 30.3481 34.5769 30.2876C34.6787 29.9776 34.8052 29.7057 34.9568 29.4721C35.1082 29.2384 35.2563 29.1216 35.4009 29.1216C35.4416 29.1216 35.4767 29.135 35.506 29.1621C35.5353 29.1891 35.55 29.225 35.55 29.27C35.55 29.333 35.4775 29.4834 35.333 29.7214C35.1836 29.9685 35.065 30.19 34.977 30.3852C34.8889 30.5805 34.8447 30.7661 34.8447 30.9411C34.8447 31.0984 34.8706 31.2051 34.9225 31.2612C34.9745 31.3174 35.0594 31.3454 35.1768 31.3454C35.5112 31.3454 35.8414 31.0362 36.1677 30.4185C36.2325 30.0934 36.3542 29.7095 36.5333 29.2663C36.8137 28.5722 37.1267 27.9465 37.4725 27.3895C37.8183 26.8324 38.0682 26.5537 38.2219 26.5537C38.2852 26.5537 38.3384 26.6086 38.3812 26.7188C38.4242 26.8289 38.4456 26.9401 38.4456 27.0524C38.4456 27.259 38.3608 27.5635 38.1913 27.9655C38.0219 28.3676 37.7992 28.7753 37.5234 29.1887C37.2475 29.6021 36.9536 29.9367 36.6417 30.1929C36.5829 30.4533 36.5536 30.6804 36.5536 30.8736C36.5536 31.2195 36.6531 31.3925 36.8519 31.3925C37.0193 31.3925 37.1898 31.287 37.3639 31.0759C37.5082 30.9006 37.6395 30.6961 37.7575 30.4622C37.7734 30.4065 37.7915 30.3483 37.8115 30.2874C37.9132 29.9774 38.0397 29.7055 38.1911 29.4719C38.3425 29.2382 38.4906 29.1214 38.6354 29.1214C38.6761 29.1214 38.7112 29.1348 38.7405 29.1619C38.7698 29.1889 38.7845 29.2248 38.7845 29.2698C38.7845 29.3328 38.7122 29.4832 38.5675 29.7212C38.4184 29.9683 38.2995 30.1898 38.2115 30.385C38.1234 30.5803 38.0792 30.7658 38.0792 30.9409C38.0792 31.0982 38.1051 31.2049 38.1573 31.261C38.2092 31.3172 38.2939 31.3452 38.4115 31.3452C38.6882 31.3452 38.9623 31.1335 39.2334 30.7099C39.2811 30.5712 39.3497 30.4259 39.4388 30.2736C39.6309 29.9456 39.8739 29.6671 40.1678 29.4378C40.4617 29.2087 40.7488 29.0942 41.0289 29.0942C41.2053 29.0942 41.3521 29.1412 41.4697 29.2355C41.5872 29.3299 41.646 29.4512 41.646 29.5994C41.646 29.7029 41.6167 29.777 41.558 29.8217C41.4992 29.8667 41.4178 29.8892 41.3137 29.8892C41.3363 29.8083 41.3475 29.7297 41.3475 29.6533C41.3475 29.541 41.3203 29.45 41.2661 29.3804C41.2119 29.3109 41.1282 29.276 41.0152 29.276C40.8163 29.276 40.6071 29.386 40.388 29.6063C40.1686 29.8263 39.9855 30.0892 39.8386 30.3947C39.6916 30.7002 39.6182 30.9632 39.6182 31.1832C39.6182 31.3584 39.6793 31.446 39.8014 31.446C39.9823 31.446 40.1946 31.3033 40.4389 31.0181C40.6829 30.7328 40.9452 30.3856 41.2254 29.9768C41.2842 29.9858 41.344 30.0048 41.4051 30.0339C41.4661 30.0632 41.4967 30.1002 41.4967 30.1452C41.4967 30.1811 41.4753 30.2383 41.4323 30.3171C41.3893 30.3958 41.3633 30.4418 41.3544 30.4552C41.2776 30.5854 41.2165 30.7012 41.1712 30.8024C41.1259 30.9035 41.1033 30.9966 41.1033 31.0821C41.1033 31.1584 41.1226 31.227 41.161 31.2876C41.1995 31.3481 41.257 31.3785 41.334 31.3785C41.4651 31.3785 41.63 31.2854 41.829 31.0988C42.0066 30.9322 42.1827 30.7054 42.3568 30.4187C42.5447 30.0428 42.7057 29.6595 42.8395 29.269C42.7942 29.224 42.7715 29.1701 42.7715 29.1074C42.7715 29.0265 42.7886 28.9501 42.8224 28.8783C42.8563 28.8064 42.897 28.7503 42.9446 28.7098C42.9921 28.6694 43.0293 28.6491 43.0565 28.6491C43.1199 28.6491 43.1514 28.703 43.1514 28.8108C43.1514 28.8287 43.1402 28.8692 43.1176 28.9321C43.0949 28.9951 43.0814 29.0378 43.0769 29.0601C43.0769 29.1051 43.0962 29.1466 43.1346 29.1848C43.173 29.223 43.2351 29.2713 43.3211 29.3297C43.4613 29.4285 43.571 29.5262 43.6499 29.6228C43.729 29.7194 43.7685 29.844 43.7685 29.9968C43.7685 30.0956 43.7527 30.1933 43.7212 30.2899C43.6896 30.3865 43.642 30.5134 43.5787 30.6707C43.4792 30.8864 43.4295 31.0414 43.4295 31.1357C43.4295 31.2705 43.4975 31.338 43.6329 31.338C43.7685 31.338 43.9143 31.2841 44.0703 31.1762C44.2263 31.0684 44.3698 30.9347 44.5009 30.7751C44.5785 30.6808 44.6433 30.5908 44.6955 30.5052C44.7144 30.4364 44.7366 30.3636 44.7619 30.2866C44.8637 29.9765 44.9902 29.7047 45.1416 29.4711C45.293 29.2374 45.4411 29.1206 45.5859 29.1206C45.6266 29.1206 45.6617 29.134 45.691 29.161C45.7203 29.1881 45.7352 29.224 45.7352 29.269C45.7352 29.3319 45.6627 29.4824 45.5182 29.7204C45.369 29.9675 45.2502 30.1889 45.1622 30.3842C45.0739 30.5795 45.0299 30.765 45.0299 30.9401C45.0299 31.0973 45.0558 31.204 45.108 31.2602C45.1599 31.3163 45.2448 31.3444 45.3622 31.3444C45.6391 31.3444 45.913 31.1326 46.1843 30.7091C46.232 30.5704 46.3004 30.4251 46.3897 30.2727C46.5818 29.9448 46.8248 29.6663 47.1187 29.437C47.4126 29.2079 47.6997 29.0933 47.98 29.0933C48.1564 29.0933 48.3032 29.1404 48.4208 29.2347C48.5383 29.3291 48.5971 29.4504 48.5971 29.5986C48.5971 29.702 48.5676 29.7761 48.5089 29.8209C48.4501 29.8659 48.3687 29.8884 48.2648 29.8884C48.2874 29.8075 48.2987 29.7289 48.2987 29.6525C48.2987 29.5402 48.2717 29.4492 48.2172 29.3796C48.163 29.3101 48.0793 29.2752 47.9663 29.2752C47.7676 29.2752 47.5584 29.3852 47.3391 29.6054C47.1198 29.8255 46.9366 30.0884 46.7897 30.3939C46.6429 30.6994 46.5693 30.9623 46.5693 31.1824C46.5693 31.3576 46.6304 31.4451 46.7525 31.4451C46.9334 31.4451 47.1459 31.3025 47.39 31.0172C47.6342 30.732 47.8963 30.3848 48.1765 29.9759C48.2353 29.985 48.2953 30.004 48.3564 30.0331C48.4175 30.0624 48.448 30.0994 48.448 30.1444C48.448 30.1803 48.4264 30.2374 48.3836 30.3163C48.3406 30.3949 48.3147 30.441 48.3055 30.4544C48.2287 30.5846 48.1676 30.7004 48.1225 30.8016C48.0772 30.9027 48.0546 30.9958 48.0546 31.0812C48.0546 31.1576 48.0737 31.2261 48.1121 31.2868C48.1506 31.3473 48.2081 31.3776 48.2852 31.3776C48.4162 31.3776 48.5811 31.2845 48.7801 31.098C48.9791 30.9116 49.1758 30.6498 49.3702 30.3128L49.4381 30.3803C49.3432 30.6185 49.2211 30.8307 49.0719 31.0172C48.9228 31.2036 48.7622 31.3485 48.5905 31.4519C48.4187 31.5554 48.2536 31.607 48.0955 31.607C47.9375 31.607 47.8164 31.5609 47.7327 31.4687C47.6492 31.3766 47.6072 31.2653 47.6072 31.1351C47.6072 31.0767 47.6141 31.0117 47.6276 30.9396C47.4242 31.2092 47.2423 31.4069 47.0817 31.5326C46.9214 31.6583 46.7619 31.7213 46.6036 31.7213L46.6044 31.7236ZM45.9467 28.4956C45.8652 28.4956 45.7986 28.4764 45.7466 28.4382C45.6947 28.4 45.6688 28.3451 45.6688 28.2731C45.6688 28.1833 45.723 28.1024 45.8316 28.0305C45.94 27.9587 46.0509 27.9228 46.1639 27.9228C46.313 27.9228 46.3876 27.9924 46.3876 28.1317C46.3876 28.2171 46.3413 28.2991 46.2484 28.3777C46.1558 28.4564 46.0553 28.4958 45.9467 28.4958V28.4956ZM41.3216 28.6438C41.29 28.6304 41.2663 28.6044 41.2503 28.5662C41.2346 28.528 41.2267 28.4954 41.2267 28.4685C41.2267 28.4147 41.2686 28.3193 41.3521 28.1823C41.4358 28.0452 41.533 27.9228 41.6437 27.8151C41.7544 27.7073 41.8506 27.6534 41.9318 27.6534C42.0178 27.6534 42.0674 27.723 42.0809 27.8623C41.7463 28.1499 41.4931 28.4103 41.3214 28.644L41.3216 28.6438ZM38.9956 28.4956C38.9141 28.4956 38.8475 28.4764 38.7955 28.4382C38.7436 28.4 38.7174 28.3451 38.7174 28.2731C38.7174 28.1833 38.7717 28.1024 38.8803 28.0305C38.9887 27.9587 39.0994 27.9228 39.2126 27.9228C39.3617 27.9228 39.4363 27.9924 39.4363 28.1317C39.4363 28.2171 39.39 28.2991 39.2973 28.3777C39.2047 28.4564 39.1042 28.4958 38.9956 28.4958V28.4956ZM36.7034 29.9648C36.952 29.7177 37.195 29.4067 37.4324 29.0314C37.6698 28.6562 37.863 28.2968 38.0123 27.9531C38.1614 27.6095 38.236 27.3612 38.236 27.2084C38.236 27.1366 38.2202 27.1007 38.1884 27.1007C38.1253 27.1007 37.9953 27.2545 37.7986 27.5622C37.6019 27.87 37.3996 28.2462 37.1917 28.691C36.9838 29.1359 36.8209 29.5604 36.7034 29.9648ZM35.7608 28.4956C35.6794 28.4956 35.6127 28.4764 35.5608 28.4382C35.5089 28.4 35.4829 28.3451 35.4829 28.2731C35.4829 28.1833 35.5371 28.1024 35.6458 28.0305C35.7544 27.9587 35.8651 27.9228 35.9781 27.9228C36.1272 27.9228 36.2018 27.9924 36.2018 28.1317C36.2018 28.2171 36.1555 28.2991 36.0628 28.3777C35.9702 28.4564 35.8695 28.4958 35.761 28.4958L35.7608 28.4956ZM32.5735 29.3245C32.7679 29.1718 32.961 28.9505 33.1534 28.6607C33.3455 28.3709 33.5037 28.0834 33.628 27.7979C33.7524 27.5127 33.8145 27.3116 33.8145 27.1948C33.8145 27.1589 33.8053 27.1409 33.7873 27.1409C33.7376 27.1409 33.6325 27.2555 33.472 27.4846C33.3116 27.7137 33.1455 27.9979 32.9735 28.3371C32.8017 28.6764 32.6682 29.0054 32.5735 29.3243V29.3245ZM33.36 30.9419C33.4641 30.7219 33.516 30.4948 33.516 30.2612C33.516 30.1084 33.4946 29.986 33.4516 29.894C33.4086 29.8019 33.3557 29.7557 33.2923 29.7557C33.2244 29.7557 33.1646 29.803 33.1126 29.8973C33.0607 29.9916 33.0348 30.1062 33.0348 30.241C33.0348 30.3757 33.0618 30.5083 33.116 30.6385C33.1704 30.7687 33.2516 30.8699 33.3602 30.9417L33.36 30.9419ZM30.7762 30.6319C30.8938 30.4567 30.9887 30.2781 31.061 30.0961C31.1335 29.9142 31.1696 29.7468 31.1696 29.5941C31.1696 29.4682 31.1503 29.3738 31.1121 29.3111C31.0737 29.2481 31.0251 29.2168 30.9663 29.2168C30.9029 29.2168 30.8385 29.2471 30.7731 29.3078C30.7075 29.3685 30.6533 29.4517 30.6103 29.5571C30.5673 29.6628 30.5459 29.7784 30.5459 29.9041C30.5459 30.0434 30.565 30.1772 30.6034 30.3051C30.6418 30.4331 30.6994 30.5423 30.7764 30.6321L30.7762 30.6319ZM21.5601 31.9999C21.5828 31.7754 21.6866 31.6292 21.8721 31.562C22.0576 31.4945 22.322 31.4608 22.6655 31.4608C22.8012 31.1733 22.9322 30.7912 23.0589 30.3151C23.1854 29.8389 23.3347 29.2277 23.5065 28.482C23.5291 28.3831 23.5846 28.1461 23.6727 27.7709C23.7607 27.3956 23.8365 27.1228 23.8999 26.9521C23.5426 26.9612 23.2612 26.9746 23.0556 26.9925C22.8498 27.0105 22.6227 27.0419 22.3741 27.0869C22.4057 26.9116 22.5311 26.7812 22.7505 26.6959C22.9698 26.6105 23.3054 26.568 23.7576 26.568C24.0515 26.568 24.3645 26.5836 24.6968 26.6152C25.0292 26.6466 25.3083 26.6782 25.5343 26.7095C25.4394 26.8039 25.3366 26.8668 25.2256 26.8982C25.1149 26.9296 24.9984 26.9453 24.8765 26.9453C24.5238 26.9453 24.2775 26.9475 24.1373 26.9521L24.0897 27.1948C23.8093 28.7404 23.6014 29.7805 23.4658 30.3151C23.3889 30.6205 23.3054 30.8688 23.2149 31.0598C23.1245 31.2507 23.0182 31.3867 22.8961 31.4676C23.1085 31.481 23.3279 31.5013 23.5539 31.5281C23.8839 31.5686 24.1552 31.5911 24.3676 31.5956C24.1732 31.7888 23.9178 31.8854 23.6012 31.8854H23.2689C22.8529 31.8899 22.5251 31.8978 22.2856 31.9089C22.046 31.9201 21.804 31.9504 21.5599 31.9997L21.5601 31.9999Z" fill="#553B1E"/>
<path fill-rule="evenodd" clip-rule="evenodd" d="M12.0467 6.37056L10.9641 8.96034H10.428L13.5911 1.44117H13.8854L17.0591 8.96034H16.4917L15.4091 6.37056H12.0465H12.0467ZM9.84254 21.6469C11.224 21.6469 12.3335 21.2745 13.1711 20.5296C14.0088 19.7849 14.4277 18.6627 14.4277 17.1633C14.4277 15.664 13.955 14.4712 13.0096 13.5851C12.0641 12.699 10.8958 12.256 9.50461 12.256C8.61296 12.256 7.83906 12.2804 7.18273 12.3291V21.5301C7.81954 21.6079 8.70621 21.6469 9.84275 21.6469H9.84254ZM55.6538 20.7707C54.679 19.729 54.1916 18.4486 54.1916 16.9297C54.1916 15.411 54.679 14.1329 55.6538 13.0961C56.6287 12.0591 57.8608 11.5408 59.3498 11.5408C60.839 11.5408 62.0736 12.0593 63.0533 13.0961C64.033 14.1331 64.523 15.411 64.523 16.9297C64.523 18.4486 64.033 19.729 63.0533 20.7707C62.0736 21.8126 60.839 22.3334 59.3498 22.3334C57.8606 22.3334 56.6285 21.8124 55.6538 20.7707ZM56.1755 13.5488C55.3624 14.4592 54.9557 15.5862 54.9557 16.9297C54.9557 18.2734 55.3647 19.4026 56.1828 20.3181C57.0009 21.2333 58.0592 21.6909 59.3573 21.6909C60.6554 21.6909 61.7134 21.2333 62.5316 20.3181C63.3497 19.4029 63.7587 18.2734 63.7587 16.9297C63.7587 15.586 63.3495 14.4592 62.5316 13.5488C61.7134 12.6385 60.6529 12.1832 59.3498 12.1832C58.0467 12.1832 56.9887 12.6383 56.1755 13.5488ZM44.6768 22.1582V11.7596C45.6075 11.6915 46.3864 11.6575 47.0134 11.6575C48.0129 11.6575 48.8358 11.913 49.4824 12.424C50.1289 12.9353 50.4523 13.6582 50.4523 14.5928C50.4523 15.2256 50.2662 15.8147 49.8938 16.36C49.5216 16.9051 49.1052 17.3384 48.6447 17.6598C49.0072 18.1562 49.4554 18.7477 49.9894 19.4342C50.5234 20.1205 50.8688 20.5515 51.0256 20.7267C51.6231 21.3596 52.2992 21.7198 53.0538 21.8075L53.039 22.2748C52.4415 22.2651 51.9563 22.1751 51.5841 22.0046C51.2119 21.8343 50.8567 21.5738 50.5186 21.2234C50.1805 20.8729 49.3405 19.7822 47.9981 17.9518C47.0379 17.9518 46.166 17.9225 45.3822 17.8643V22.158H44.6768V22.1582ZM47.5719 17.3679C48.0031 17.3679 48.4636 17.0855 48.9534 16.5208C49.4433 15.9561 49.6882 15.3014 49.6882 14.5564C49.6882 13.8117 49.4358 13.2468 48.9313 12.8622C48.4266 12.4775 47.758 12.2853 46.9254 12.2853C46.4844 12.2853 45.9702 12.3047 45.3824 12.3438V17.2946C46.1662 17.3433 46.8961 17.3677 47.5721 17.3677L47.5719 17.3679ZM39.4386 21.1431C38.7625 21.9365 37.7338 22.3334 36.3524 22.3334C34.971 22.3334 33.9399 21.9342 33.2589 21.1358C32.5781 20.3375 32.2374 19.247 32.2374 17.8643V11.7157H32.943V17.8643C32.943 20.4347 34.077 21.72 36.3451 21.72C38.6132 21.72 39.7472 20.4347 39.7472 17.8643V11.7157H40.4526V17.8643C40.4526 19.2567 40.1145 20.3494 39.4386 21.1431ZM19.7615 20.7707C18.7865 19.729 18.2991 18.4486 18.2991 16.9297C18.2991 15.411 18.7865 14.1329 19.7615 13.0961C20.7364 12.0591 21.9683 11.5408 23.4575 11.5408C24.9467 11.5408 26.1813 12.0593 27.161 13.0961C28.1407 14.1331 28.6307 15.411 28.6307 16.9297C28.6307 18.4486 28.1407 19.729 27.161 20.7707C26.1813 21.8126 24.9467 22.3334 23.4575 22.3334C21.9683 22.3334 20.7364 21.8124 19.7615 20.7707ZM20.2832 13.5488C19.4701 14.4592 19.0634 15.5862 19.0634 16.9297C19.0634 18.2734 19.4726 19.4026 20.2905 20.3181C21.1084 21.2333 22.1667 21.6909 23.4648 21.6909C24.7629 21.6909 25.8211 21.2333 26.6393 20.3181C27.4572 19.4029 27.8664 18.2734 27.8664 16.9297C27.8664 15.586 27.4572 14.4592 26.6393 13.5488C25.8211 12.6385 24.7606 12.1832 23.4575 12.1832C22.1546 12.1832 21.0964 12.6383 20.2832 13.5488ZM9.50461 11.6137C11.1211 11.6137 12.4733 12.1128 13.5608 13.1108C14.6483 14.1087 15.1921 15.4646 15.1921 17.1782C15.1921 18.0447 15.0525 18.8115 14.7731 19.4784C14.494 20.1453 14.1093 20.6784 13.6196 21.0776C12.6104 21.8857 11.3515 22.2899 9.84275 22.2899C8.85327 22.2899 7.73127 22.2364 6.47717 22.1293V11.7161C7.47663 11.648 8.48564 11.6139 9.50461 11.6139V11.6137ZM55.5591 6.37077L54.4767 8.96055H53.9407L57.1037 1.44137H57.3978L60.5715 8.96055H60.0041L58.9215 6.37077H55.5588H55.5591ZM57.2194 2.27691C57.2124 2.28392 57.1984 2.32562 57.1775 2.40219C57.0794 2.70148 56.9849 2.95578 56.8937 3.16445L55.7379 5.94227H58.7433L57.5875 3.17477C57.3422 2.64575 57.2196 2.34626 57.2196 2.2767L57.2194 2.27691ZM51.5506 8.96055V1.49359H52.0552V8.96055H51.5506ZM46.9432 9.08584C45.8503 9.08584 44.9115 8.71513 44.1268 7.97351C43.3421 7.2321 42.95 6.31648 42.95 5.22687C42.95 4.13725 43.2933 3.22183 43.9798 2.48022C44.6662 1.7388 45.5456 1.3681 46.6174 1.3681C47.4581 1.3681 48.3093 1.50722 49.171 1.78587L49.0344 2.20343C48.1936 1.95285 47.3879 1.82756 46.6174 1.82756C45.6997 1.82756 44.9499 2.15471 44.3686 2.80923C43.787 3.46354 43.4962 4.26419 43.4962 5.21118C43.4962 6.15796 43.8344 6.96377 44.5104 7.62882C45.1865 8.29365 45.9976 8.62617 46.9432 8.62617C47.7699 8.62617 48.4846 8.50088 49.0871 8.25031L49.2448 8.60532C48.9785 8.75848 48.63 8.87675 48.1992 8.96034C47.7684 9.04394 47.3497 9.08563 46.9434 9.08563L46.9432 9.08584ZM34.3491 2.68415L34.3701 3.5719V8.96055H33.8656V1.43085H34.0968L39.0465 7.10165C39.3827 7.49837 39.6419 7.8152 39.8241 8.05195C39.7961 7.71778 39.7821 7.33489 39.7821 6.9033V1.4938H40.2864V9.0233H40.0553L35.0111 3.24825C34.6609 2.85154 34.4366 2.58693 34.3385 2.45462L34.3491 2.68435V2.68415ZM27.9133 8.96055V1.49359H31.4023V1.93221H28.4178V4.67886H31.1185V5.10715H28.4178V8.52214H31.5179V8.96076H27.9135L27.9133 8.96055ZM29.6472 0.584993L28.5543 1.11773L28.4176 0.929692L29.6472 0.000244141L30.8768 0.929692L30.7401 1.11773L29.6472 0.584993ZM22.171 1.82777C21.2532 1.82777 20.5036 2.15492 19.9222 2.80943C19.3407 3.46374 19.0499 4.26625 19.0499 5.21655C19.0499 6.16684 19.3791 6.97286 20.0377 7.63418C20.6961 8.29551 21.4985 8.62617 22.4441 8.62617C23.2569 8.62617 23.9329 8.51471 24.4723 8.292V5.22171H24.9768V8.52194C24.3674 8.8978 23.5144 9.08584 22.418 9.08584C21.3215 9.08584 20.395 8.71162 19.6383 7.96319C18.8817 7.21476 18.5034 6.29935 18.5034 5.21655C18.5034 4.13394 18.8468 3.22183 19.5334 2.48042C20.2199 1.73901 21.0993 1.36831 22.171 1.36831C23.0118 1.36831 23.8629 1.50742 24.7247 1.78607L24.588 2.20363C23.7473 1.95305 22.9416 1.82777 22.171 1.82777ZM13.707 2.2767C13.7 2.28372 13.686 2.32541 13.6651 2.40199C13.5668 2.70128 13.4723 2.95557 13.3813 3.16425L12.2255 5.94206H15.2309L14.0749 3.17457C13.8298 2.64555 13.707 2.34605 13.707 2.27649V2.2767Z" fill="#553B1E"/>
<path fill-rule="evenodd" clip-rule="evenodd" d="M0.636223 8.55824C1.47014 8.55205 2.30385 8.54606 3.13756 8.54276H3.14587C4.91464 8.53595 6.68238 8.54235 8.44783 8.58982C8.45386 8.58961 8.45988 8.58941 8.4659 8.58941H8.59094L8.59904 8.59395C9.11123 8.6084 9.62321 8.62636 10.1348 8.64844C12.2355 8.73926 14.3349 8.90067 16.4325 9.17849H16.4327C17.511 9.32133 18.5888 9.49512 19.6659 9.70586C21.2958 10.025 22.9219 10.4287 24.5378 10.8803C24.5448 10.8822 24.5519 10.8842 24.5589 10.8863C26.976 11.5625 29.3705 12.3458 31.7213 13.1151C33.4242 13.6722 35.1041 14.2218 36.7489 14.7164C36.7566 14.7184 36.7643 14.7207 36.7717 14.7232C37.2162 14.8565 37.6582 14.9861 38.0973 15.1104C40.786 15.8723 43.377 16.4496 45.7338 16.8653C47.1017 17.1066 48.3907 17.2936 49.5742 17.4308C49.5891 17.4319 49.6039 17.4335 49.6186 17.436C50.7709 17.5687 51.8223 17.6544 52.748 17.6967C54.4902 17.7763 55.7821 17.7029 56.8487 17.5526C57.9144 17.4025 58.7641 17.1743 59.614 16.946L61.2226 16.514L60.0518 17.532C58.5321 18.8536 57.0121 20.1752 53.4953 21.8283C51.5467 22.7441 48.9804 23.7625 46.0256 24.6067C43.6821 25.2763 41.0919 25.8363 38.3681 26.1486C35.2254 26.509 31.9122 26.5383 28.643 26.2118C27.0266 26.0504 25.4197 25.8016 23.8476 25.4629C23.8291 25.46 23.811 25.4561 23.7936 25.4514C22.4745 25.1653 21.1803 24.8156 19.9264 24.4005C19.9148 24.397 19.9031 24.3933 19.8919 24.389C19.769 24.3481 19.6462 24.3066 19.5241 24.2645C16.9091 23.3634 14.4867 22.1767 12.3362 20.8935C12.3304 20.8902 12.3246 20.8867 12.3187 20.8832L12.3017 20.8731C11.3243 20.2885 10.4023 19.6837 9.54325 19.0767L9.53369 19.0699C8.04863 18.0199 6.75196 16.9627 5.68397 15.992C2.62059 13.2073 1.43732 11.1375 0.253846 9.06786L0.243669 9.04701L0.000244141 8.56319L0.63643 8.55845L0.636223 8.55824ZM51.5471 21.8888C51.8483 21.5773 52.148 21.2663 52.4207 20.9651C52.698 20.6586 52.9333 20.3771 53.0845 20.1459C53.2172 19.9428 53.2881 19.7713 53.3263 19.616C52.9734 19.6877 52.6074 19.7562 52.2263 19.8216C51.9494 19.8691 51.6653 19.9145 51.3731 19.9574C51.3446 20.0883 51.3068 20.2262 51.2462 20.3816C51.1461 20.6376 50.9869 20.929 50.7097 21.2902C50.3963 21.6987 49.9277 22.2007 49.3966 22.7402C50.1599 22.4585 50.8789 22.1722 51.5473 21.8888H51.5471ZM54.2163 19.4233C54.1953 19.7193 54.1226 20.0435 53.8333 20.4863C53.7188 20.6613 53.5724 20.851 53.404 21.0506C55.4552 20.0629 56.7772 19.1958 57.8404 18.3712C57.3808 18.5299 56.9102 18.6849 56.4187 18.8344C55.7331 19.0429 55.0076 19.2406 54.2163 19.4231V19.4233ZM47.682 23.3382C48.6001 22.4329 49.5077 21.5344 49.9908 20.9051C50.2234 20.6018 50.3543 20.3649 50.4338 20.161C50.4446 20.1333 50.4546 20.1061 50.4638 20.079C49.8091 20.1583 49.1152 20.2241 48.3751 20.2722C47.7707 21.2714 47.1476 22.2632 46.1895 23.12C45.7442 23.5182 45.233 23.8808 44.6851 24.2234C45.0457 24.1289 45.4015 24.0315 45.7514 23.9314C46.4159 23.7417 47.0602 23.5427 47.6818 23.3382H47.682ZM42.0874 24.8295C43.3662 24.1469 44.6396 23.4618 45.5645 22.6345C46.3282 21.9515 46.8764 21.1488 47.3856 20.3242C47.0892 20.3362 46.786 20.3455 46.4753 20.3515C46.1417 20.3581 45.7996 20.361 45.4488 20.3599C45.3786 20.4039 45.303 20.4553 45.2116 20.5277C45.0644 20.6444 44.87 20.8202 44.5815 21.1141C44.3819 21.3177 44.3277 21.3742 44.267 21.4376C43.6589 22.0721 42.7975 22.9704 41.7214 23.758C40.9299 24.3374 40.0316 24.8503 39.0928 25.3378C40.1136 25.2004 41.1139 25.028 42.0874 24.8293V24.8295ZM36.9684 25.5702C38.4661 24.8371 39.9589 24.1013 41.1598 23.2224C42.1846 22.4723 43.0152 21.606 43.602 20.994L43.9197 20.6623C44.041 20.5387 44.1486 20.4332 44.2452 20.3422C43.7532 20.329 43.2447 20.3085 42.7188 20.2799C42.6073 20.3162 42.4854 20.3618 42.3132 20.4516C42.0801 20.5732 41.7592 20.773 41.2628 21.1282C40.934 21.3637 40.4964 21.6919 40.0146 22.0535C39.0895 22.7476 37.9978 23.5667 36.9927 24.2296C36.2354 24.7291 35.549 25.1242 34.8981 25.467C34.7388 25.5511 34.5819 25.6316 34.4266 25.71C35.2815 25.6875 36.1301 25.6406 36.9684 25.5702ZM32.7008 25.7226C33.2724 25.4522 33.8456 25.1793 34.4432 24.8643C35.0767 24.5308 35.7403 24.1491 36.4643 23.6715C37.4175 23.043 38.5137 22.2203 39.4428 21.5232C39.9115 21.1715 40.3373 20.852 40.7077 20.5868C40.932 20.4262 41.1247 20.2941 41.2921 20.1851C40.631 20.1335 39.9441 20.0697 39.2294 19.9925C38.954 20.0817 38.6747 20.176 38.3602 20.3184C38.0078 20.478 37.6073 20.6993 37.1119 21.0436C36.823 21.2444 36.467 21.5142 36.0793 21.8079C35.1812 22.4884 34.1132 23.2977 32.9264 23.9458C32.075 24.4109 31.1678 24.7892 30.2327 25.1244C29.836 25.2666 29.4341 25.4008 29.0293 25.5306C30.2522 25.6448 31.4797 25.7083 32.7004 25.7226H32.7008ZM27.2354 25.3261C28.1322 25.0542 29.028 24.7807 29.8989 24.4687C30.7879 24.1502 31.65 23.7904 32.4588 23.3487C33.5923 22.7297 34.6312 21.9425 35.5048 21.2805C35.8811 20.9953 36.2269 20.7333 36.5674 20.4966C37.0017 20.1946 37.3712 19.9777 37.7016 19.8119C37.1514 19.7417 36.5871 19.6643 36.0113 19.5805C35.7093 19.6227 35.4019 19.6703 35.0208 19.7915C34.6002 19.9252 34.082 20.1502 33.369 20.5566C32.6715 20.9544 31.7996 21.5179 30.8996 22.0993C29.8773 22.76 28.8189 23.4441 27.9245 23.9454C26.9386 24.4982 26.1645 24.8233 25.4807 25.0513C26.0623 25.155 26.6476 25.2464 27.2356 25.3259L27.2354 25.3261ZM23.9167 24.7415C24.8981 24.4934 25.9001 24.2228 27.4495 23.3543C28.3162 22.8684 29.3649 22.1906 30.3779 21.5358C31.2928 20.9445 32.1793 20.3717 32.8873 19.968C33.4128 19.6685 33.8461 19.4577 34.2185 19.306C33.8614 19.2489 33.5013 19.1894 33.1386 19.1283C32.2896 19.2055 31.4301 19.2953 30.144 19.8815C29.4405 20.202 28.5956 20.6759 27.7096 21.1728C26.8659 21.6458 25.9858 22.1396 25.1596 22.5423C24.281 22.9706 23.4403 23.3109 22.6182 23.6069C22.1696 23.7685 21.722 23.9184 21.2748 24.0627C22.1397 24.3192 23.022 24.5452 23.9169 24.7413L23.9167 24.7415ZM20.072 23.6823C20.7969 23.4546 21.5238 23.224 22.2805 22.9514C23.0714 22.6663 23.8812 22.3388 24.7282 21.9257C25.5648 21.5179 26.4174 21.0396 27.2348 20.5814C28.1355 20.0763 28.9946 19.5946 29.7359 19.2565C30.2227 19.0346 30.6527 18.8769 31.0452 18.7617C30.3804 18.641 29.7112 18.5155 29.0403 18.3863C27.8736 18.919 26.7091 19.4499 25.5956 19.9285C24.4092 20.4384 23.2544 20.9022 22.1627 21.2733C21.0663 21.6461 20.029 21.9272 19.0214 22.1627C18.3965 22.3086 17.7836 22.4368 17.1752 22.5582C18.0407 22.9386 18.9332 23.2907 19.8483 23.6061C19.9227 23.6317 19.9972 23.6571 20.072 23.6823ZM16.0578 22.045C16.959 21.8702 17.8616 21.6931 18.7907 21.4762C19.7667 21.2481 20.7736 20.975 21.8416 20.612C22.9144 20.2472 24.0451 19.7936 25.2045 19.2951C26.0664 18.9246 26.9309 18.5361 27.7962 18.1427C26.8767 17.9598 25.9582 17.771 25.0493 17.5786C23.0392 18.3923 21.028 19.2003 18.9776 19.7607C17.2157 20.2423 15.4444 20.5362 13.6715 20.7996C14.4373 21.2326 15.2338 21.6504 16.0576 22.045H16.0578ZM12.6804 20.2206C14.7056 19.9261 16.7299 19.6249 18.7138 19.0825C20.4058 18.6199 22.0879 17.9774 23.7682 17.3037C22.6097 17.0523 21.4742 16.797 20.3796 16.5437C18.854 17.2843 17.3218 18.0154 15.5819 18.4525C14.6867 18.6775 13.7386 18.8222 12.7643 18.9267C12.1387 18.9937 11.5187 19.0433 10.9006 19.0864C11.4695 19.4691 12.0635 19.8487 12.6806 20.2204L12.6804 20.2206ZM9.95699 18.4335C10.8777 18.3743 11.7951 18.3134 12.6571 18.2209C13.5807 18.1219 14.4822 17.984 15.3379 17.7691C16.717 17.4224 17.9844 16.8684 19.2302 16.2749C18.6274 16.1323 18.0401 15.9909 17.4714 15.8518C17.3351 15.8184 17.2001 15.7854 17.0659 15.7521C16.5292 15.9849 15.9857 16.2157 15.3626 16.4236C14.6849 16.6496 13.9425 16.8358 13.071 16.9425C12.2132 17.0473 11.2254 17.0748 10.173 17.0634C9.48343 17.056 8.77683 17.0325 8.06483 17.0034C8.65242 17.4748 9.28445 17.9547 9.95719 18.4338L9.95699 18.4335ZM7.15448 16.2502C8.19319 16.2966 9.22775 16.3414 10.1828 16.3517C11.187 16.3625 12.1291 16.3365 12.9472 16.2364C13.7515 16.1381 14.4313 15.968 15.0483 15.7622C15.3298 15.6683 15.6048 15.5643 15.8758 15.4547C14.9563 15.2219 14.0908 14.9954 13.2769 14.7754C12.6673 14.9168 12.0575 15.0565 11.4493 15.1668C10.7795 15.2881 10.0907 15.3789 9.36462 15.4087C8.2852 15.4526 7.15386 15.3587 6.00985 15.2305C6.1085 15.3226 6.20945 15.4155 6.31247 15.509C6.57874 15.7511 6.85976 15.9988 7.15469 16.2504L7.15448 16.2502ZM5.1643 14.4107C6.59722 14.5843 8.02537 14.75 9.32433 14.697C9.98918 14.6699 10.6341 14.5841 11.2686 14.4691C11.4474 14.4367 11.624 14.4022 11.7989 14.3665C11.0665 14.1591 10.3813 13.9576 9.74098 13.7615C9.67264 13.7407 9.60493 13.7196 9.53743 13.699C8.1691 13.6837 6.80347 13.6641 5.59299 13.4164C4.92482 13.2796 4.31875 13.0777 3.74155 12.8457C4.15488 13.3446 4.62282 13.8641 5.16409 14.4109L5.1643 14.4107ZM2.80025 11.6201C3.75028 12.0643 4.70487 12.501 5.79384 12.7241C6.21173 12.8098 6.65642 12.8659 7.11834 12.9037C6.22419 12.5889 5.45113 12.2892 4.78608 12.0032C3.5999 11.4931 2.76453 11.0306 2.11131 10.5918C2.32441 10.9282 2.55143 11.27 2.80046 11.6201H2.80025ZM53.6551 18.4381L53.9558 18.7444C54.4119 18.6395 54.8458 18.5295 55.2625 18.4152C54.7725 18.4387 54.24 18.4476 53.6551 18.4381ZM53.0457 18.9401L52.5144 18.3991C51.8653 18.3661 51.1591 18.3128 50.4037 18.2383L51.2042 19.2592C51.496 19.2164 51.7797 19.1712 52.056 19.1238C52.3979 19.0651 52.7273 19.0038 53.0457 18.9401ZM50.2789 19.382L49.2865 18.1165C48.5828 18.0327 47.8438 17.932 47.0751 17.8133L48.333 19.5609C49.0204 19.5157 49.6672 19.4548 50.2787 19.3818L50.2789 19.382ZM47.3748 19.6121L45.9481 17.63C45.8196 17.6081 45.6904 17.5856 45.5606 17.5627C45.1767 17.495 44.7869 17.4232 44.3914 17.347L45.5909 19.6485C45.8867 19.6485 46.176 19.6456 46.4587 19.64C46.7717 19.6338 47.0768 19.6245 47.3748 19.6121ZM44.6556 19.6392L43.3527 17.1392C42.6166 16.9868 41.8643 16.8201 41.099 16.638C41.209 16.8271 41.3052 16.9916 41.375 17.1105C41.6001 17.4934 41.8155 17.855 42.011 18.1735C42.3499 18.726 42.6353 19.1582 42.9145 19.576C43.5185 19.6076 44.0984 19.6282 44.6556 19.639V19.6392ZM41.8984 19.5141C41.7019 19.215 41.4928 18.8895 41.2522 18.4973C41.0543 18.1745 40.8368 17.8094 40.6096 17.4232C40.3494 16.9807 40.1656 16.6653 39.9919 16.3666C39.2776 16.186 38.554 15.9924 37.8235 15.7856L37.674 15.743C37.8854 16.0316 38.0962 16.3497 38.306 16.7237C38.5253 17.1148 38.7403 17.5627 38.953 18.0391C39.1385 18.4544 39.3169 18.8775 39.4943 19.3017C40.3344 19.3909 41.1349 19.461 41.8984 19.5141ZM38.5457 19.195C38.4136 18.8814 38.2825 18.5747 38.1542 18.2874C37.9486 17.8267 37.7419 17.3959 37.534 17.025C37.1479 16.3365 36.7458 15.8382 36.3426 15.3515C35.5291 15.1059 34.7082 14.8476 33.8812 14.5822C34.3259 15.1263 34.745 15.6788 35.0964 16.2547C35.3752 16.7115 35.6126 17.1879 35.8292 17.6738C36.0167 18.0946 36.1798 18.5006 36.3395 18.9042C37.0922 19.0123 37.8244 19.1091 38.5297 19.1931L38.5459 19.195H38.5457ZM35.3833 18.7626C35.2678 18.475 35.1508 18.1923 35.0304 17.9219C34.8287 17.4694 34.6042 17.0203 34.3346 16.5782C33.8166 15.729 33.1359 14.9228 32.4499 14.1184C32.1045 14.0057 31.7583 13.8924 31.411 13.7789C30.9167 13.6171 30.4205 13.4548 29.9226 13.293C29.956 13.3318 29.9895 13.3708 30.0229 13.41C30.3571 13.8028 30.6853 14.2198 31.0012 14.6848C31.418 15.2984 31.8067 15.9845 32.1431 16.5786C32.3136 16.8797 32.4709 17.1573 32.6065 17.3809C32.948 17.9446 33.1793 18.2135 33.3962 18.4441C34.0689 18.557 34.7325 18.6633 35.3835 18.7626H35.3833ZM32.1926 18.2375C32.0879 18.0895 31.9732 17.9146 31.8442 17.7018C31.7001 17.4636 31.5422 17.1852 31.3709 16.8828C31.0394 16.2977 30.6566 15.6221 30.2589 15.0365C29.9587 14.5948 29.6464 14.1977 29.3275 13.823C29.0287 13.4715 28.724 13.1394 28.4193 12.8088C27.5419 12.5293 26.66 12.2548 25.7752 11.9918C25.8139 12.0321 25.8527 12.0729 25.8918 12.1146C26.2868 12.5361 26.6802 13.0104 27.0705 13.5904C27.8165 14.6994 28.5543 16.194 29.2916 17.7029C30.2655 17.8903 31.2359 18.0694 32.1928 18.2375H32.1926ZM28.2706 17.5037C27.6196 16.1781 26.9693 14.897 26.3248 13.939C25.9541 13.3879 25.586 12.9436 25.2198 12.5526C24.8809 12.191 24.5268 11.8595 24.1714 11.5297C23.0097 11.2066 21.8445 10.9094 20.6785 10.6518C20.7308 10.6908 20.7832 10.7303 20.8353 10.7705C21.388 11.1955 21.9326 11.6894 22.4606 12.321C22.9848 12.9479 23.4828 13.6976 23.9676 14.5085C24.4165 15.2592 24.8624 16.0764 25.3079 16.8977C26.2878 17.1047 27.279 17.3078 28.2706 17.5037ZM24.2464 16.6708C23.9024 16.0409 23.5562 15.4188 23.202 14.8266C22.7289 14.0354 22.2506 13.313 21.7618 12.7285C21.2771 12.1487 20.7719 11.6913 20.2568 11.2952C19.7611 10.9142 19.2526 10.5874 18.7433 10.2634C18.3036 10.1841 17.8639 10.111 17.4238 10.0433C17.6126 10.24 17.7993 10.4409 17.9825 10.6491C18.4042 11.1284 18.7988 11.6384 19.1394 12.2094C19.7835 13.2887 20.2294 14.5746 20.6662 15.8704C21.821 16.1375 23.0215 16.4064 24.2461 16.6708H24.2464ZM19.7027 15.6456C19.3212 14.5285 18.918 13.4389 18.3743 12.5274C18.0556 11.9935 17.6872 11.5173 17.2942 11.0704C16.9289 10.6551 16.5353 10.2576 16.1396 9.86128C15.2853 9.75044 14.4304 9.65901 13.5755 9.58387C13.7388 9.71308 13.9004 9.8456 14.0593 9.98286C14.5324 10.3917 14.9846 10.8467 15.3946 11.393C15.8019 11.9357 16.1579 12.5553 16.4881 13.2133C16.7897 13.8142 17.0697 14.445 17.348 15.0782C17.4685 15.1079 17.5898 15.1377 17.7119 15.1676C18.3531 15.3244 19.0183 15.4842 19.7025 15.6454L19.7027 15.6456ZM16.3247 14.8233C16.1209 14.3659 15.9145 13.9157 15.6993 13.487C15.3819 12.8548 15.0461 12.2674 14.6726 11.7701C14.3021 11.2764 13.8848 10.858 13.4443 10.477C13.0297 10.1185 12.5962 9.79482 12.1615 9.47407C11.4717 9.42701 10.7818 9.38944 10.0918 9.35972L9.92147 9.35249C10.5234 9.73104 11.0991 10.1659 11.6088 10.7428C12.0309 11.2207 12.3975 11.785 12.7364 12.3924C13.0368 12.9312 13.3236 13.5213 13.609 14.1155C14.4579 14.3448 15.3622 14.5806 16.3249 14.8233H16.3247ZM12.5468 13.8241C12.3586 13.4408 12.1657 13.0616 11.9607 12.6938C11.6414 12.1214 11.3014 11.5959 10.9201 11.1643C10.1875 10.335 9.26368 9.81175 8.33318 9.29903C7.27952 9.27137 6.22648 9.25837 5.17344 9.25383C5.28227 9.29718 5.39007 9.34073 5.4962 9.3851C6.21277 9.68357 6.88967 10.0155 7.48743 10.4136C8.64307 11.1833 9.45871 12.1689 10.2636 13.1611C10.9708 13.3756 11.731 13.5964 12.547 13.8241H12.5468ZM8.85804 12.721C8.29808 12.0735 7.69471 11.4636 6.95572 10.9715C6.41279 10.6099 5.78512 10.3032 5.11487 10.0239C4.44046 9.74281 3.74965 9.49801 3.05801 9.25445C2.58258 9.25631 2.10716 9.2592 1.63194 9.2625C2.38838 9.90896 3.3355 10.5779 5.17676 11.3697C6.14589 11.7864 7.35803 12.2356 8.85804 12.7213V12.721ZM44.4944 6.82773C44.7132 6.901 44.8195 7.10844 44.7318 7.29091C44.6442 7.47358 44.3958 7.56212 44.1771 7.48906C43.0898 7.1361 42.0016 6.78397 40.4441 6.94641C38.8766 7.10968 36.7956 7.78153 35.0586 8.34234L34.9039 8.39229C33.98 8.69034 33.1673 8.95 32.4842 9.15372C31.7624 9.36901 31.115 9.54507 30.5195 9.67655C30.0406 9.78223 29.6034 9.85695 29.1913 9.91309C30.5355 10.3517 31.8663 10.7825 33.1482 11.1864L33.6087 11.3309C34.2453 11.3241 34.9234 11.3016 36.6133 10.8995C37.6009 10.6646 38.9131 10.3059 40.2721 9.88007C41.4001 9.52649 42.5738 9.12214 43.6402 8.69736C44.9182 8.18815 46.0046 7.6645 46.9702 7.19926C47.8112 6.79409 48.5631 6.43164 49.2524 6.16413C50.0376 5.85927 50.7533 5.67 51.5104 5.5959C52.2626 5.52221 53.0469 5.56452 53.9722 5.72284C55.3819 5.96413 57.1048 6.4723 58.7992 6.97242C59.2379 7.10184 59.6749 7.23084 60.1796 7.37574C61.2172 7.67358 62.2032 7.93716 63.1237 8.14625C64.0347 8.35307 64.8788 8.50581 65.6419 8.58445C66.4023 8.66268 67.0839 8.66846 67.7262 8.63791C68.3825 8.60675 69.0004 8.53843 69.6183 8.47011L71.0008 8.31757L69.956 9.08953C69.4966 9.42886 69.0374 9.7684 68.5206 10.1209C67.9955 10.4791 67.41 10.8524 66.7036 11.2562C65.963 11.6795 65.0776 12.1419 64.1207 12.5927C63.2674 12.9945 62.3702 13.3813 61.485 13.7147C60.5291 14.0745 59.5766 14.3783 58.5545 14.6214C57.5316 14.8648 56.4389 15.0479 55.2039 15.1659C53.9801 15.2828 52.6099 15.3354 51.1828 15.3232C49.7615 15.3112 48.2945 15.2357 46.8705 15.0966C45.4368 14.9564 44.0371 14.7519 42.5878 14.471C41.1409 14.1907 39.6486 13.8354 38.0271 13.3933C36.5804 12.9989 35.0262 12.5338 33.4126 12.0302C33.3924 12.0252 33.3729 12.0191 33.3542 12.012L32.8479 11.8531C31.0195 11.2772 29.1545 10.6669 27.2894 10.057L25.6107 9.50792L27.4063 9.37066C27.8462 9.33701 28.2863 9.30337 28.7763 9.24495C29.2467 9.18881 29.7458 9.11038 30.3027 8.98736C30.8587 8.86455 31.4853 8.69364 32.1973 8.48125C32.9482 8.2573 33.7291 8.00817 34.5969 7.72828L34.7516 7.67833C36.5374 7.10184 38.6768 6.4112 40.3411 6.23761C42.108 6.05329 43.2991 6.43989 44.4901 6.82629L44.4953 6.82773H44.4944ZM35.4111 11.8849C36.4049 12.1844 37.3687 12.4639 38.2904 12.7153C39.8912 13.1518 41.3598 13.5017 42.7776 13.7764C44.1929 14.0505 45.562 14.2505 46.9667 14.388C48.3757 14.5257 49.8116 14.6004 51.1886 14.6119C52.5709 14.6235 53.9056 14.5719 55.1061 14.4573C56.2908 14.3442 57.3386 14.1688 58.3196 13.9353C59.3014 13.7017 60.2159 13.41 61.1331 13.0647C62.0123 12.7336 62.8851 12.3584 63.7022 11.9734C64.6206 11.5408 65.4857 11.0882 66.2216 10.6677C66.9111 10.2737 67.4773 9.91289 67.9818 9.56881C68.1083 9.48253 68.2309 9.39728 68.3505 9.31307C68.1607 9.32793 67.9683 9.34031 67.7727 9.3496C67.08 9.38263 66.3481 9.37664 65.538 9.29325C64.7307 9.21007 63.8469 9.05073 62.8996 8.83544C61.9618 8.62264 60.9582 8.35431 59.9021 8.0511C59.4989 7.93531 59.0081 7.79062 58.5151 7.6451C56.8431 7.15179 55.1435 6.65022 53.8017 6.4207C52.9703 6.27848 52.2712 6.23989 51.6071 6.3049C50.9479 6.36951 50.314 6.53855 49.6101 6.81184C48.9365 7.07335 48.2085 7.42404 47.3948 7.81621C46.3993 8.2959 45.2789 8.83565 44.008 9.34217C42.9394 9.76799 41.7381 10.181 40.5699 10.5472C39.1705 10.9858 37.8379 11.3505 36.8475 11.5862C36.271 11.7233 35.8036 11.8186 35.4115 11.8853L35.4111 11.8849Z" fill="#2E0A0A" fill-opacity="0.070588"/>
</g>
<defs>
<clipPath id="clip0_484_10723">
<rect width="71" height="32" fill="white"/>
</clipPath>
</defs>
</svg>
